<svg viewBox="200 200 1600 1600" xmlns="http://www.w3.org/2000/svg"><path d="m1620.78 540.23c-67.56-67.56-152.85-110.59-246.65-124.45a449.17 449.17 0 0 0 -65.36-4.78c-6.29 0-12.64.14-19 .41-2.73-25.25-4-39.47-4.15-42.73-2.67-54.89-27.16-76.89-47.12-85.62-6-2.75-38.24-20.93-59.56-33l-.7-.39c-17.61-9.94-35.82-20.22-51.09-28.64a88.25 88.25 0 0 0 -44.15-11.33 90 90 0 0 0 -22.65 3.2l-1.2.29a38.21 38.21 0 0 0 -4.61 1.5c-32 10.92-51.76 35.93-57.71 44.37-160.63 216.84-294 430.24-396.68 634.5-8.61 2.61-17.36 5.28-26.15 8a87 87 0 0 0 -4-15.13 44 44 0 0 0 -37.77-28.21c-2.45-.18-4.95-.3-7.42-.36a142.87 142.87 0 0 0 -43.14 5.81 75.81 75.81 0 0 0 -19.5-17.11c-1.12-.64-2.25-1.22-3.42-1.75s-2.28-1-3.44-1.43l-.2-.08c-.76-.27-1.81-.64-3.05-1a43.71 43.71 0 0 0 -7.08-1.38c-.68-.08-1.35-.13-2-.17s-1.67-.11-2.86-.11a39.68 39.68 0 0 0 -4.06.21c-.69.06-1.37.14-2 .23a44.19 44.19 0 0 0 -9.27 2.34 115.21 115.21 0 0 0 -53.95 41.06c-12.85 17.77-21.29 39.55-25.09 64.72a210 210 0 0 0 -2.26 28.48c-16.17 6-30.44 11.51-42.62 16.54-.35.14-.7.27-1 .42l-.4.16c-.43.18-.85.36-1.4.56-17.22 6.32-31.78 20.29-39.94 38.35-12.69 28.15-10.32 63.62 7.26 108.46 16.61 42.29 36.47 67.54 62.39 79.43a74.27 74.27 0 0 0 27.62 6.84c1.25.06 2.49.09 3.7.09 14.27 0 25.42-4.15 30.82-6.17l.79-.3c2-.65 8-2.74 34.2-12.12a116.18 116.18 0 0 0 29.9 28.24c-25.94 78.89-34.52 124-35.51 129.5-10.1 55.47 26.24 93.22 65.64 100.68 41.84 8.28 91.5 15.18 148.39 20.63a89.48 89.48 0 0 0 -35.09 34.9c-.41.71-.75 1.36-1 1.89q-.76 1.4-1.41 2.85c-14.64 30.07-13 67.42 4.85 111 16.18 39.57 41.78 78 70.27 105.36 30.7 29.49 62.83 45.14 92.93 45.27h.43a85.36 85.36 0 0 0 11.73-.81c43.14-6 67.1-39.22 74.76-66.36a511.53 511.53 0 0 1 28-67.38 219.58 219.58 0 0 0 48.34.82c-.37 3.4-.8 6.86-1.28 10.35-4.36 31.56 8.56 61.13 34.57 79.13 16.29 11.25 36.88 17.44 58 17.44a106.88 106.88 0 0 0 12.2-.69 97.84 97.84 0 0 0 36-11.16c27.82-15.15 43.83-43.25 42.81-75.16-2.66-84.43-36.52-141.79-46.84-157.36a176.92 176.92 0 0 0 -11.13-15.18c135-.78 234.68-5.48 235.67-5.53 12.84-.71 25-2.32 33-3.55a187.75 187.75 0 0 0 28.29-6.72c66.31-21.3 78-27.75 82.46-30.18a61 61 0 0 0 29.73-36.37 101.86 101.86 0 0 0 16.91 4.7 44 44 0 0 0 35.16-8.89 113.88 113.88 0 0 0 21.79-24.39 85.39 85.39 0 0 0 29.55 2.72h.16a43.58 43.58 0 0 0 37.16-27.67c2.67-6.79 25-68.24-10.3-134a146.32 146.32 0 0 0 -19.06-27.59 440.69 440.69 0 0 0 178.01-354.24c0-117.85-45.89-228.64-129.22-311.96z" fill="#fff"/><path d="m1594.33 566.61c-76.26-76.26-177.67-118.28-285.56-118.28a410.53 410.53 0 0 0 -52 3.34c-5.41-46.27-8.12-74.72-8.42-81.17-1.4-28.73-9.8-46.67-24.92-53.29-6.7-2.94-35.37-19.1-63.07-34.74-17.69-10-36-20.31-51.23-28.71-14.15-7.8-27.83-8.12-40-4.53a6.14 6.14 0 0 0 -.69.13v.07c-18.67 5.73-33.73 20.53-41.31 31.45-187.67 253.26-314.97 470.86-400.81 643.78-10 3-47.22 14.18-94.31 29 11.9-29.7 3.41-53 3-54.08a6.49 6.49 0 0 0 -5.62-4.19c-29.32-2.19-52.58 8.75-64.45 16-6.27-23.29-20.62-32-21.54-32.55a6.63 6.63 0 0 0 -3.3-.88 6.46 6.46 0 0 0 -2.28.41 78.61 78.61 0 0 0 -36.79 28c-9.29 12.87-15.51 29.1-18.42 48.42a186.46 186.46 0 0 0 -.54 48.65c-25.35 9-48.76 17.75-67.8 25.64l-.22.08c-1.08.44-2.15.89-3.23 1.28-3.71 1.37-13 5.88-18.76 18.65-8.23 18.26-5.54 45 8 79.46 12.68 32.25 26.82 51.63 43.31 59.19a36.8 36.8 0 0 0 15.62 3.49c7.54 0 13.7-2.3 17.73-3.81.77-.28 1.46-.54 2.07-.75 4.26-1.41 31.9-11.29 63.63-22.67 4.67 14 19.08 43.9 58.56 54.13-33.53 95.88-43.92 150.2-45 156.26-7.06 38.75 20.51 54.47 36 57.34 71 14.08 158.87 22.81 249.93 28 .77 17.58 6.31 67.31 43.16 108.13a293.4 293.4 0 0 0 -16.22 36.28 188.14 188.14 0 0 1 -21.34-35.53c-18.77-41.82-43.58-59.45-75.83-53.93-10.61 1.83-30 7.82-41 27.61-.23.37-.4.78-.6 1.17l-.22.36c-10.39 20.21-8.64 47.69 5.28 81.69 14.28 34.93 36.74 68.68 61.58 92.57 23.58 22.72 47.28 34.92 67.41 34.92a48.69 48.69 0 0 0 6.55-.44c33.82-4.74 43.25-36.64 44.2-40.23a553.21 553.21 0 0 1 43.86-98.68 171.88 171.88 0 0 0 47.49 6.59 190.27 190.27 0 0 0 59.23-9.47c1.34 16.69.44 37.82-2.8 61.3-2.47 17.83 4.21 33.21 18.81 43.3 10.38 7.17 23.61 10.83 36.77 10.83a63.7 63.7 0 0 0 30.26-7.3c15.62-8.51 23.93-23.14 23.35-41.19-1.87-59.28-22.23-110.13-40.65-137.94-18.78-28.32-33-34.38-56.17-24-2.43 1.1-5.08 2.41-8.16 3.94-13.57 6.74-33.15 16.41-56.1 17.06 30.72-38.43 57.69-62.19 67.23-70.14q18.13.07 35.74.09c151.51 0 268.67-5.45 271.06-5.58 11.35-.62 22.22-2.07 29.33-3.17a146.57 146.57 0 0 0 22.58-5.36c23.5-7.54 64.58-21.13 75.9-27.35 15-8.28 14.35-24.91 11.83-32.83-11.29-47.22-22.38-95.79-33.11-144.86 10.21-2.13 20.38-4.67 30.38-7.56a42.79 42.79 0 0 1 4.84 8.72c-3.86 9.4-15.75 43.49-4.44 83.71 13.49 48 59.8 56.76 61.78 57.12a6.54 6.54 0 0 0 5.23-1.33 65.33 65.33 0 0 0 8.32-8.42 93.14 93.14 0 0 0 14.45-23.5 90.31 90.31 0 0 0 4.83-15c8.7 7.89 22.77 17.39 40.11 17.39 1.29 0 2.62 0 3.94-.17a6.55 6.55 0 0 0 5.55-4.12c.46-1.18 6.83-17.86 6.83-41.7a128 128 0 0 0 -15.27-61c-15.29-28.45-36.38-41-52.94-46.48a403.77 403.77 0 0 0 207.7-353c0-107.92-42.02-209.33-118.31-285.62zm-773.2 896.83q19.7.69 39.26 1.25c-6.8 7.18-16.22 17.58-26.64 30.42a94.92 94.92 0 0 1 -12.62-31.67z" fill="#c31f45"/><path d="m764.13 1758.57c-21.86 0-46.53-12.59-71.34-36.42-25.4-24.43-48.32-58.87-62.88-94.48-14.43-35.26-16.24-64.12-5.36-85.82a5.39 5.39 0 0 1 .55-1.1l.08-.16a11 11 0 0 1 .56-1.08c12.08-21.74 33.31-28.34 44.89-30.34 35.14-6 61.93 12.68 81.9 57.15a172.77 172.77 0 0 0 14.75 26.14c3.2-7.81 6.86-15.76 11-23.77-32.59-37.9-40.08-81.94-41.71-103.65-99.36-5.85-182-15.21-245.73-27.84-17.36-3.23-48.25-20.74-40.4-63.84 1.05-5.78 11-58.31 43.3-151.54-33.73-10.94-48.61-36-54.65-50.71-19.21 6.89-53.56 19.19-58.54 20.85-.42.14-.89.31-1.4.5l-.51.19c-4.12 1.54-11.07 4.15-19.66 4.15a42.58 42.58 0 0 1 -18-4c-17.82-8.17-32.93-28.53-46.17-62.22-14.09-35.94-16.73-64.14-7.86-83.81 6.62-14.67 17.54-20 21.93-21.6.9-.33 1.77-.69 2.64-1.05l.38-.16.37-.14c17.06-7.06 38.47-15.19 63.71-24.19a191.39 191.39 0 0 1 1.05-45.68c3-20.12 9.57-37.23 19.42-50.87a84 84 0 0 1 39.37-29.92 12.36 12.36 0 0 1 10.33.85c1.65 1 14.55 9.12 22 29.15 13.27-7 35.09-15.28 61.63-13.3a12.15 12.15 0 0 1 10.44 7.81c.35.9 7.74 20.73.56 47.42 27.31-8.57 55.26-17.16 81.6-25.08 102.68-206.46 237.31-422.58 400.2-642.44 8.31-12 24.05-27 43.26-33.19a6.23 6.23 0 0 1 1.14-.43l.82-.17c15.13-4.37 29.93-2.65 44 5.1 15.35 8.45 33.62 18.76 51.29 28.73 24.91 14.07 55.92 31.58 62.56 34.48 17.24 7.56 26.75 27.13 28.26 58.15.26 5.6 2.59 30.8 7.74 75.21a417.07 417.07 0 0 1 47.13-2.7c109.37 0 212.19 42.59 289.52 119.92s120 180.18 120 289.55a409.35 409.35 0 0 1 -200.57 352.19c14.81 7.16 32.06 20.35 45.14 44.69a133 133 0 0 1 15.94 63.63c0 25.27-6.93 43-7.23 43.76a12.08 12.08 0 0 1 -10.28 7.65c-1.48.12-3 .18-4.41.18-15 0-27.68-6.33-37-13.22q-1.24 3.8-2.78 7.42a98.19 98.19 0 0 1 -15.32 24.92 70.79 70.79 0 0 1 -9.09 9.17 12.07 12.07 0 0 1 -9.75 2.47c-2.08-.37-51.73-9.81-66.16-61.1-11-39.16-.92-72.81 3.76-85.11-.33-.68-.74-1.46-1.23-2.32-7.06 2-14.17 3.75-21.25 5.33 10.45 47.64 21.16 94.4 31.84 139.08 2.89 9.35 3.52 29.28-14.53 39.23-11.81 6.48-53.24 20.18-76.89 27.77a150.64 150.64 0 0 1 -23.44 5.56c-7.3 1.13-18.41 2.61-29.87 3.23-1 .06-118.33 5.59-271.37 5.59q-16.59 0-33.71-.08c-9.83 8.32-31.22 27.63-56.29 57.52 16.36-3 30.55-10 40.64-15.06 3-1.52 5.77-2.86 8.34-4 25.81-11.58 42.91-4.53 63.14 26 18.86 28.47 39.68 80.42 41.59 140.86.65 20.27-8.68 36.71-26.27 46.29a69 69 0 0 1 -32.94 8c-14.73 0-28.92-4.2-40-11.82-16.43-11.36-23.95-28.65-21.18-48.67 2.71-19.63 3.8-37.8 3.18-53.06a198 198 0 0 1 -54.06 7.59 177.83 177.83 0 0 1 -44.74-5.64 548 548 0 0 0 -41.24 93.74c-1.29 4.71-11.86 39-48.79 44.16a53.39 53.39 0 0 1 -7.35.4zm-129.22-212.41-.12.25c-9.62 18.71-7.77 44.62 5.49 77 14 34.23 36 67.27 60.27 90.65 22.36 21.48 44.94 33.3 63.58 33.3a41.83 41.83 0 0 0 5.77-.39c30.26-4.24 38.7-32.86 39.57-36.11l.09-.33a560 560 0 0 1 44.31-99.68 5.6 5.6 0 0 1 6.42-2.62 166.25 166.25 0 0 0 45.94 6.37 184.09 184.09 0 0 0 57.44-9.17 5.6 5.6 0 0 1 7.37 4.85c1.4 17.37.42 39-2.84 62.52-2.16 15.62 3.69 29.1 16.46 37.93 9.17 6.34 21.1 9.83 33.58 9.83a57.75 57.75 0 0 0 27.58-6.62c13.68-7.45 20.94-20.27 20.43-36.09-1.83-58.1-21.72-107.85-39.72-135-19.13-28.85-31.11-30.07-49.21-21.95-2.37 1.08-5 2.38-8 3.85-13.6 6.75-34.14 17-58.45 17.64a5.6 5.6 0 0 1 -4.53-9.09c30.8-38.54 57.83-62.46 68-71a5.62 5.62 0 0 1 3.66-1.3q18.13.08 35.72.09c152.77 0 269.73-5.52 270.76-5.57 11-.6 21.72-2 28.77-3.12a140.85 140.85 0 0 0 21.73-5.15c39.59-12.71 66.89-22.52 74.91-26.92 14.76-8.13 9.43-25.5 9.19-26.23 0-.13-.07-.26-.11-.4-11.12-46.51-22.27-95.29-33.13-145a5.59 5.59 0 0 1 4.32-6.67c10-2.08 20-4.59 30-7.46a5.6 5.6 0 0 1 6.12 2.14 47.51 47.51 0 0 1 5.47 9.89 5.57 5.57 0 0 1 0 4.19c-3.73 9.07-15 41.65-4.23 80.07 12.55 44.62 55.55 52.8 57.38 53.12a.9.9 0 0 0 .75-.19 62.3 62.3 0 0 0 7.54-7.65 87.12 87.12 0 0 0 13.56-22.08 84.24 84.24 0 0 0 4.53-14.06 5.6 5.6 0 0 1 9.23-2.9c8 7.27 20.82 15.94 36.34 15.94 1.14 0 2.3 0 3.47-.14a1 1 0 0 0 .81-.61c.26-.67 6.44-16.49 6.44-39.64a121.91 121.91 0 0 0 -14.6-58.33c-14.75-27.44-35.21-39-49.77-43.81a5.6 5.6 0 0 1 -1-10.21 398.2 398.2 0 0 0 204.8-348.1c0-106.38-41.44-206.4-116.67-281.63s-175.22-116.64-281.6-116.64a404.64 404.64 0 0 0 -51.33 3.3 5.61 5.61 0 0 1 -6.27-4.91c-5-42.95-8.11-74.08-8.45-81.57-1.29-26.41-8.55-42.71-21.57-48.42-6.63-2.9-31.61-16.93-63.58-35-17.64-9.95-35.89-20.25-51.19-28.67a45.19 45.19 0 0 0 -35.73-4.07l-.28.07-.33.11c-16.9 5.19-31.22 19-38.35 29.29-163.12 220.25-297.79 436.57-400.31 643.09a5.63 5.63 0 0 1 -3.41 2.87c-30.32 9.1-62.91 19.13-94.24 29a5.6 5.6 0 0 1 -6.88-7.43c11.18-27.87 3-49.76 3-50a.92.92 0 0 0 -.8-.62c-28.06-2.09-50.34 8.61-61.13 15.18a5.6 5.6 0 0 1 -8.31-3.33c-5.69-21.1-18.45-28.87-19-29.19a1.12 1.12 0 0 0 -.76 0 73 73 0 0 0 -34.22 26c-8.8 12.18-14.66 27.65-17.42 46a180.29 180.29 0 0 0 -.53 47.12 5.59 5.59 0 0 1 -3.68 6c-27 9.56-49.69 18.15-67.52 25.54a2.92 2.92 0 0 1 -.38.14l-.21.09c-1 .43-2.06.85-3.1 1.23-3 1.11-10.69 4.89-15.56 15.69-7.59 16.81-4.87 42.08 8.07 75.11 12.13 30.86 25.36 49.23 40.43 56.14a31 31 0 0 0 13.29 3c6.56 0 12.1-2.08 15.77-3.45l.52-.2 1.73-.62c3.73-1.24 27.48-9.7 63.52-22.64a5.62 5.62 0 0 1 7.21 3.51c4 12 17.23 40.78 54.64 50.48a5.58 5.58 0 0 1 3.88 7.26c-33.53 95.9-43.74 149.61-44.79 155.42-6.27 34.42 17.86 48.3 31.5 50.84 64.33 12.75 148.16 22.15 249.23 28a5.6 5.6 0 0 1 5.27 5.35c.8 18.45 6.47 65.57 41.72 104.62a5.59 5.59 0 0 1 .79 6.36 288.35 288.35 0 0 0 -15.97 35.45 5.6 5.6 0 0 1 -9.74 1.45 193.89 193.89 0 0 1 -22-36.61c-17.82-39.69-40-55.81-69.78-50.7-9.62 1.66-27.23 7.09-37 24.8l-.09.17-.12.25-.32.65a.56.56 0 0 0 -.04.08zm-5.91-3.16.94.53-1-.63zm204.77-42.28h-.33a5.59 5.59 0 0 1 -4.4-2.6 99.88 99.88 0 0 1 -13.38-33.58 5.59 5.59 0 0 1 5.69-6.68c15 .53 27.48.93 39.21 1.25a5.6 5.6 0 0 1 3.92 9.44c-9.07 9.59-17.93 19.72-26.36 30.11a5.62 5.62 0 0 1 -4.37 2.05zm-5.44-31.42a89.42 89.42 0 0 0 6.28 16q6.54-7.82 13.34-15.35c-6.16-.21-12.63-.42-19.64-.66z" fill="#c31f45"/><path d="m1585.45 1043.35a337.63 337.63 0 0 0 54.28-183.95c0-187.14-152.23-339.38-339.37-339.38a342.78 342.78 0 0 0 -35 1.83q-.7-5.54-1.39-10.88a348.66 348.66 0 0 1 44.8-2.91c189.74 0 344.12 154.38 344.12 344.14 0 132.86-77.44 254.57-197.67 311.36-.52-.49-1.08-1-1.62-1.44a340.86 340.86 0 0 0 131.85-118.77z" fill="#acbac3"/><path d="m1632.27 859.4c0 125.6-72.35 241.68-184.85 297.53-17.11-13.35-43.41-26.75-81.21-28.86-50-246.61-82-461.3-99.84-598.81a335.24 335.24 0 0 1 34-1.77c183 0 331.9 148.9 331.9 331.91z" fill="#01c0e3"/><path d="m1546.39 1257.91c20.58 38.3 12.59 75.61 9.1 87.69-18.06-.77-32.16-15.66-36.47-20.74a108.54 108.54 0 0 0 -5.34-38.73 96.48 96.48 0 0 1 17.27 19.13c0-.41-.11-26.82-28.56-41.92l-10-4.07a2.41 2.41 0 0 0 -3.08 3.29l4.72 9.7c29 59.43-1.76 95-10.79 103.71-9.48-2.61-39-13.35-48.55-47.08-11.67-41.51 4.59-76.73 4.76-77.07l1-2.16-.62-2.32c-.19-.67-3.25-18.64-22.3-29.69-48.44-28.08-96.52 0-96.52 0 20.1-3.9 36.45-4.55 49.78-3.19 13.12 61.45 26.89 122.43 41 181.3l.15.54c.16.5 4 12.28-5.64 17.54-7.45 4.11-35 14-73.58 26.36a137.61 137.61 0 0 1 -19.77 4.76c.13-.23.28-.41.41-.64 8.2-13.34 3.38-29.06 2.56-31.5-138.44-502.67-166.85-894.82-177.54-1042.47-1.65-22.89-2.86-39.41-4-49.78-2-18.6-6.59-33.75-13.57-45.34 10.66 6 22 12.35 33.09 18.62 30.56 17.25 56.95 32.13 64.27 35.34 10.06 4.4 16 18.91 17.1 41.94 1.16 23.8 34.45 346 117.53 756.68a236 236 0 0 0 -48.51 6.16s77.5-8 134.79 33c25.59 18.33 34.06 42.63 34.14 42.85l1.71 4.43 4.73-.23c1.73-.02 42.39-1.39 66.73 43.89z" fill="#fed768"/><path d="m1485.37 1200.9.13.3c-.65 0-1.29-.11-1.87-.13a122.81 122.81 0 0 0 -18.68-27.68c122.43-59.73 201-184.81 201-321.19 0-197-160.24-357.21-357.18-357.21a363.36 363.36 0 0 0 -46.44 3q-2.23-17.78-4.09-33.36a397.94 397.94 0 0 1 50.53-3.24c215.48 0 390.78 175.3 390.78 390.8.04 148.06-82.05 281.69-214.18 348.71z" fill="#acbac3"/><path d="m1384.71 1216.77c11.87 2.89 20.53 7.58 26.82 12.56-7.6 2.06-15.27 3.87-22.94 5.47q-1.96-9.02-3.88-18.03z" fill="#d8d9d8"/><path d="m1303.57 1416.92c0 .13 4.08 11.83-1.35 20.61-3.56 5.77-10.75 9.37-21.33 10.71-21.84 1-150.78 6.33-306.88 5.32l-.24-.32a4.35 4.35 0 0 1 -.38.3c-160-1-348.28-8.77-479-34.66-1.31-.24-32.11-6.4-25.59-42.18 3.15-17.34 82.74-431.92 568.89-1088.13l.13-.17c.8-1.17 14.16-20 33.45-26.3a35.83 35.83 0 0 1 26.5 6.58c12.84 9.33 20.81 27.27 23.65 53.3 1.1 10.14 2.3 26.56 3.94 49.3 10.73 148 39.21 541.21 178.07 1045.17zm-28.08 3.58a7.26 7.26 0 0 0 1.14-6.27c-137.39-502-165.77-893.66-176.46-1041.16-1.63-22.45-2.8-38.67-3.85-48.34-2-17.9-6.85-30.89-13.45-35.71a8.26 8.26 0 0 0 -8.87-.47c-8.49 4.82-15.81 14.6-16.11 15-482.71 651.57-561.25 1060.55-564.35 1077.64-1.68 9.23.82 11.73 5.82 13 104.38 20.66 265 32.44 464.4 34.1l24.08.13h25.57c120.92 0 219.66-3.49 256.48-5a7.22 7.22 0 0 0 5.6-2.92z" fill="#fed768"/><path d="m1078.14 293.28c-482.57 651.37-561.08 1060.16-564.14 1077.24-1.57 8.58.45 10.73 5.1 11.91 104.3 20.64 264.82 32.42 464.21 34.06l24.07.15c8.48 0 17 .06 25.56.06 104.19 0 192.59-2.64 237.44-4.26.3 1.08.6 2.18.9 3.29a1.83 1.83 0 0 1 -.26 1.47 1.7 1.7 0 0 1 -1.31.69c-36.81 1.49-135.44 5-256.26 5-8.53 0-17.08 0-25.55 0l-24-.13c-199.11-1.66-359.33-13.4-463.22-34-2-.49-2.62-.66-1.55-6.52 3.09-17 81.4-424.79 563.34-1075.3.06-.09 6.91-9.24 14.37-13.47a2.68 2.68 0 0 1 1.29-.36h.21z" fill="#fed768"/><path d="m959.34 1582.86a60 60 0 0 1 4.44 14.63c-11 3.88-52.43 16.48-98.24 4.48a582.19 582.19 0 0 1 35.32-52.41c30.42 2.35 56.26-10.4 71.86-18.15 2.95-1.45 5.49-2.72 7.69-3.71 14.56-6.53 22.74-6.68 39.93 19.26 17.43 26.32 36.69 74.57 38.48 131.13.53 16.48-8.71 25-16.55 29.3-15.7 8.57-38.64 7.36-53.35-2.8-7.3-5.06-14.63-14.39-13.29-30.76 5.7-69.06-15.71-90.39-16.29-90.97z" fill="#fed768"/><path d="m997.49 1053.76a7.1 7.1 0 1 1 -7.09 7.1 7.09 7.09 0 0 1 7.09-7.1z" fill="#fffaef"/><path d="m977 1070.13a8.39 8.39 0 0 1 -2.83 11.54c-12 7.24-30 11.48-30.71 11.67a9.12 9.12 0 0 1 -1.92.22 8.4 8.4 0 0 1 -1.9-16.58c.15 0 16.16-3.84 25.83-9.68a8.38 8.38 0 0 1 11.53 2.83z" fill="#fffaef"/><circle cx="933.8" cy="975.24" fill="#fffaef" r="8.94"/><path d="m913.4 1092.07a8.39 8.39 0 0 1 -6.46 10 201.55 201.55 0 0 1 -42 4.69c-39.74 0-59.7-14-60.76-14.75a8.4 8.4 0 0 1 9.78-13.66c.54.37 29.87 20 89.46 7.28a8.42 8.42 0 0 1 9.98 6.44z" fill="#fffaef"/><path d="m902.59 953.89a7.5 7.5 0 1 1 -7.5 7.5 7.49 7.49 0 0 1 7.5-7.5z" fill="#fffaef"/><path d="m885 978.41a5.77 5.77 0 1 1 -5.79 5.77 5.77 5.77 0 0 1 5.79-5.77z" fill="#fffaef"/><path d="m878.25 1465.15c27.14.66 54 1.08 80.14 1.33-33.57 30.59-113.6 113.6-156 241.94l-.13.45a46.13 46.13 0 0 1 -4.74 10.94c-3-13.67-15.17-27.57-27.85-42-5.82-6.63-11.83-13.48-17.37-20.68-9.39-12.21-12.29-25-15.63-39.78-4.66-20.68-9.94-44.12-35.11-69.29-10.36-10.35-20.43-17.06-30.12-20 .82-.19 1.62-.34 2.33-.47 16.3-2.8 37.07.63 61.73 46.4 29.73 55.21 60.36 60.38 60.36 60.38a204.11 204.11 0 0 1 -17.45-18.16c23.74-72.76 87.66-138.91 99.84-151.06z" fill="#fed768"/><path d="m806.15 935.54a29.57 29.57 0 1 1 -28.45 47.82 167.75 167.75 0 0 0 -3 111.95c-57-27.68-85.95-70-92.79-81.06a.45.45 0 0 1 0-.52c8.44-13.16 47.94-67.78 130.44-85.08-2.15 2.24-4.22 4.54-6.2 6.89z" fill="#fffaef"/><path d="m807.77 1462.91a106.27 106.27 0 0 0 17.47 43 455.17 455.17 0 0 0 -33.52 49.78c-30.16-35.76-35.71-78.79-36.7-95.19q26.3 1.37 52.75 2.41z" fill="#fed768"/><path d="m759.9 1686.43c20.23 23 31.22 36.66 21.59 48.77 0 0-7.63 3.7-12.6 4.39-36.79 5.17-93.64-50.45-121.68-119-12.2-29.81-14.18-54.19-5.82-70.65 1.16-1.75 6.63-9.28 16-10.49 10-1.27 22.06 4.91 35 17.84 22.48 22.48 27.13 43 31.62 62.93 3.36 14.93 6.85 30.38 18 44.85 5.77 7.57 11.93 14.59 17.89 21.36z" fill="#fed768"/><path d="m618.45 940.67c-31.71 64.81-57.45 123.06-78.38 174.33-8.36 3-35.93 12.93-66.28 23.83 7.21-14.74 4.91-38.43-6.87-70.51-15.83-43.14-31.56-59.66-43-65.6 77.31-26.31 161.66-52.1 194.53-62.05z" fill="#acbac3"/><path d="m524.38 910.54c1.66 9.23 2.5 27.55-9.47 48.57-38.17 12.15-80.95 26.13-120.17 39.83-2.16-21.7-4-83.43 41.44-105.62.15.54.32 1.1.47 1.66q1.34 4.75 2.33 9.65a99.15 99.15 0 0 1 2.18 19.93 103.22 103.22 0 0 0 4.35-20.18c.17-1.47.32-2.94.45-4.42 6.37 9.91 18.85 62.31 18.85 62.31 3-14.49 3.57-26.66 2.6-36.87a102.2 102.2 0 0 1 42.46-16.35c-1.23 1.21-2.44 2.43-3.6 3.68a97.93 97.93 0 0 0 -14.67 20.38 92.9 92.9 0 0 1 9-8.34 90.27 90.27 0 0 1 9.83-7 98.42 98.42 0 0 1 10.47-5.69c1.1-.57 2.32-1.03 3.48-1.54z" fill="#fed768"/><path d="m533.52 1131.23q-16.12 40.39-28.2 74.51c-35.39-8.64-47.21-34.85-50.72-46.14 30.05-10.79 61.47-22.1 78.92-28.37z" fill="#fed768"/><path d="m461.68 1070.23c14.54 39.64 11.46 58.68 6.31 67.66a20.6 20.6 0 0 1 -3.05 4.11c-33.35 12-68.07 24.41-83.11 29.75 5.47-15.77 2.65-39-8.46-69.29-12.71-34.6-26.88-56.8-42.22-66.15 24.1-9.57 53.48-20.14 84.37-30.74a22 22 0 0 1 2.7.77c10.49 3.66 26.53 17.8 43.46 63.89z" fill="#cddde7"/><path d="m361.11 1107c14.65 39.93 10.51 57.38 6.74 64.23-2.71 4.91-6.2 6.42-7.34 6.81-12.45.69-29.88-7.35-48.31-54.28-15.17-38.69-12.84-59.06-8.21-69.3a24 24 0 0 1 7.43-9.6l.06.1s3.26-1.46 8.43.37c7.97 2.8 23.91 14.56 41.2 61.67z" fill="#cddde7"/><path d="m1094.59 373.54c10.66 146.9 38.86 536 174.76 1035.21-45.11 1.62-133 4.21-236.45 4.21-8.51 0-17.08 0-25.54 0l-24.06-.15c-199.16-1.64-359.44-13.4-463.42-34-2.39-.62-3.48-.88-2.26-7.62 3.1-17 81.45-425 563.51-1075.67l.22-.28c4.35 5 7.86 16.09 9.39 30.12 1.05 9.54 2.26 25.72 3.85 48.18zm-3.59 683.3a13.47 13.47 0 0 0 3.14-16.55c-6.14-11.65-24-41.78-57.51-70-42-35.42-92.9-55.36-151.25-59.26-139.73-9.33-203.19 78-214.48 95.64a13.66 13.66 0 0 0 -.13 14.47c10.34 16.76 68.17 100.89 191.79 111.11 8.34.7 16.52 1 24.52 1 106.58-.01 182.18-57.63 203.92-76.41zm-35.48 173.31c-2.3-2.07-4.59-3.37-6.68-5-1.07-.78-2.11-1.55-3.16-2.24s-2-1.55-3-2.24c-2-1.36-3.87-3-5.79-4.31l-2.76-2.24a32.63 32.63 0 0 1 -2.74-2.24c-3.64-3-7.26-6.1-10.92-9.46s-7.43-6.83-12-10.64a25.42 25.42 0 0 0 .73 8.68 42.59 42.59 0 0 0 1.27 4.12c.52 1.33 1.1 2.65 1.73 3.94a41.48 41.48 0 0 0 8.37 11.2c-.23.45-.43.92-.68 1.36-1 1.93-2.16 3.85-3.36 5.72a88.07 88.07 0 0 1 -8.12 10.67 89.24 89.24 0 0 1 -20.81 17.38 91.15 91.15 0 0 1 -12.3 6.27c-2.11 1-4.31 1.66-6.49 2.5-2.22.66-4.41 1.48-6.69 2a123.58 123.58 0 0 1 -27.92 4 124.42 124.42 0 0 0 28.58-.79c2.41-.26 4.74-.84 7.13-1.27 2.33-.6 4.72-1.06 7-1.81a96 96 0 0 0 13.71-5.11 97.83 97.83 0 0 0 24.71-16.22 101.72 101.72 0 0 0 10.4-10.85c1.58-1.94 3.11-4 4.57-6.06.11-.15.2-.3.3-.45a37.17 37.17 0 0 0 7.67 3 31.4 31.4 0 0 0 17.25.09zm-122.93-65.08a208.09 208.09 0 0 0 49.16-20.8 365.57 365.57 0 0 1 -50.56 15.14l-3.19.71-3.23.56-6.44 1.21-6.48.94-3.23.46-3.24.32a214.16 214.16 0 0 1 -26 1.51 205.94 205.94 0 0 1 -26-1.36 223.71 223.71 0 0 1 -50.92-11.63 175.79 175.79 0 0 1 -24.23-10.54c6.94 5.6 14.8 10 22.83 13.9a170 170 0 0 0 25.1 9.56 186.94 186.94 0 0 0 53.28 7.54 199.57 199.57 0 0 0 53.15-7.52z" fill="#fed768"/><path d="m357.57 1184.52s26.74 1.06 20.81-41.74-30.83-83.94-30.83-83.94l66.24-25.33a20.64 20.64 0 0 1 23 5.83c8.2 9.5 19.29 23.82 24.5 37.12a265.49 265.49 0 0 1 12.44 40.93s1.18-22.63-12.7-56.74-29.53-49.74-29.53-49.74 30.05-23.06 66.84-34.46l-87.34 25.65s-9.85-30.06 5.7-70.73 23.68-23.13 24.7-17.09l-.61-21-2.83-6.8s-27 10.17-37.84 37.89-12.12 83.43-12.12 83.43l-71.28 26.2s-35.06 12.09-13.9 84 54.75 66.52 54.75 66.52z" fill="#fffaef" opacity=".55"/><path d="m499.47 923.84s2.15-2.87 0-7.53-26.82 4.69-26.82 4.69 25.64-13.17 39.51-15.76-12.69 18.6-12.69 18.6z" fill="#fffaef" opacity=".55"/><path d="m667.57 1669.21s35.66 44 56.57 32.71 13.94-43.17 8.58-74.8-11.53-46.92-23.33-61.67 3.22-35.39 20.11-15c0 0-23.06-24.13-35.12-29.77s-53.62 7.78-59.52 21.72-2.15 58.18 11.53 85.8 21.18 41.01 21.18 41.01z" fill="#fffaef" opacity=".55"/><path d="m785.63 1628.13s0-20.22 24.27-57.86 45.28-86 45.28-86-40.93 51.77-46.84 61.41-37-19.28-46.66-36.08c0 0 15.24 34.71 23.33 46.6s4.35 16.24 1.24 24.33-13.37 34.53-13.37 34.53z" fill="#fffaef" opacity=".55"/><path d="m854.61 1412s120.54-105.66 167.14-95.88c63 13.22 76.06 14.46 137.19-24.27s71.19-48 71.19-48l18.83 76.44s-72.29 53.66-125.48 73.77-68-26.6-137.66 20.79z" fill="#fffaef" opacity=".55"/><path d="m678.49 940.46s136.38-100.32 172.78-105.92 60.35 10.26 84.15 38.26 69.53 30.33 130.19-25.66 75.3-66.76 75.3-66.76l-16.84-125.38s-85.52 76.84-135.45 100.64-55.53-68-134.39-25.67-107.23 78.5-107.23 78.5z" fill="#fffaef" opacity=".55"/><path d="m909.86 537.87s76.07-50.89 96-57.74 6.2 21.45 44-2 52.8-35.42 52.8-35.42l-4.19-54.84s-51.94 34.13-63.47 40.28-2.76-24-65.31 20.31z" fill="#fffaef" opacity=".55"/><path d="m778.16 1141.59s45.48 29.34 96.6 27.3 107-24.62 107-24.62-34.53 32.78-101.79 37.91-101.81-40.59-101.81-40.59z" fill="#fffaef" opacity=".55"/><path d="m506.47 1212.4s-24.14-7.3-38.46-21.05-20.21-35.35-20.21-35.35l21.9-12.07 4.11-5.09s48.95-24.91 49.88-94.28-27.89-74.36-27.89-74.36l-66.68 24.6s21-58.53 8.4-110.33c0 0 11.67 7.46 19.13 26.13s8.71 9.33 8.71 9.33 5.13-.31 6.85 15.71 3.11 23.65 8.08 16 12.45-27.68 39.36-43.55 2.8 52.89 2.8 52.89l104.76-30.33z" fill="#c31f45" opacity=".4"/><path d="m1685.31 724.72-54.13-105.72s-62.53-74.66-166.13-107.32-177.32-25.2-177.32-25.2-15.94 1.45-21.18-10.36 9.28-16.55 9.28-16.55l-23.32 1.26-14.71-116.26s-7-14.93-22.86-22.4-106.4-61.17-106.4-61.17l-4.57 2s21.85 12.14 25.08 60.68 26.7 313.12 36.41 381.89 65.54 381.9 86.54 478.18 59.06 235.44 59.06 235.44.58 19-5.77 27-17.19 9.91-17.19 9.91 23.25-.95 71.78-16.51 63.15-25.2 60.66-42.31-33.91-153-33.91-153l40.75-9.34 10.27 12.45s3.11 38.26 17.11 75 31.42 56 31.42 56 12.44-12.45 20.53-24.58a67.12 67.12 0 0 0 10-24.26s7.15-11.83 7.15-24.27 15.24 4.36 26.44 46.35l14 1.25s5-60.67-19.28-104.84-58.49-42-58.49-42 139.68-65 193.81-211.85 4.97-269.47 4.97-269.47zm-126.31 348.43s-53.61 56.37-90.61 76.62l-20.79 13.5s-30.95-16.75-51.2-24.75-35-7.25-35-7.25-79.79-422.63-101.7-604.67c0 0 98.49-18.71 208.62 42s159 181.71 164.72 248.87 8.09 151.15-74.04 255.68z" fill="#c31f45" opacity=".4"/><path d="m697.83 1709.39s27.11 28.07 54.34 14.67-6.47-69.87-6.47-69.87 48.31 40.54 69-22 83.66-105.66 37.95-150.51l21.13-22 99.62 3.45s-56.06 47-73.31 76.33c0 0 5.6 9.06 48.73-5.6s62.53-24.58 78.49 8.62 38.38 101.78 36.66 141-41.23 34.35-63.93 31.48-31.47-22.43-27.5-39.68-5.18-69.86-5.18-69.86-40.53 8.19-60.8 8.62-44.86-7.33-44.86-7.33l-6-.86s-40.34 86.51-49.17 110.4-27.17 32.35-43.12 31-49.6-9.94-65.58-37.86z" fill="#c31f45" opacity=".4"/><path d="m809.53 1541.2s-15.52-26.74-28-35.79a32.61 32.61 0 0 0 -25-6l-8.2-44.85 65.55 5.17 20.27 47z" fill="#c31f45" opacity=".4"/><path d="m1267.28 1420.79s8.36.36 6.67-5.81-9.79-4.19-9.79-4.19-169.51 4-204.88 4-189.28-2.25-204.67-2.79-98.52-4.45-118.13-5.81-109.17-8.2-132.68-12.3-80.54-10.44-84.38-13.29-5.68-5.21-2.94-13.28 19.68-87.61 39.19-137 50.23-136.23 66.88-170.4c15.35-31.53 33.17-73.84 48.74-105.38l53.19-104.39 66.22-119.1 70.49-117 117.92-179.2s66.41-94 77.63-109.29 24.53-34.22 24.53-34.22-7.11-4.28-18.28 10.45-74.9 103.11-74.9 103.11l-115.5 171.23s-121.83 195.6-167.65 285c0 0-77.62 151-105.56 218.13s-86.52 218.26-102 297.1c0 0-2.95 11.33 2.57 15.11s128.15 16.84 197.9 24.26 237.44 9.47 237.44 9.47l230.54-1.26z" fill="#c31f45" opacity=".4"/><path d="m1041.73 346.48c-23.24 32.62-62.62 88.35-62.62 88.35l-117.92 179.17-70.49 117-66.22 119.19-53.19 104.39c-15.57 31.54-33.39 73.85-48.74 105.38-16.65 34.17-47.37 121.06-66.88 170.4s-36.45 128.89-39.19 137-.89 10.42 2.94 13.28 60.86 9.19 84.38 13.29 113.07 10.94 132.68 12.3 102.78 5.26 118.13 5.81c11.46.41 100.31 1.79 159.26 2.46l110.7-.6c61.28-1.19 139.59-3.06 139.59-3.06a13 13 0 0 1 5.1-.08l4.57-.14a75.71 75.71 0 0 1 -2.94-8.55c-.12-.45-.2-.89-.29-1.33-19.9.46-169.67 3.94-202.68 3.93-35.37 0-189.32-2.26-204.67-2.8s-98.52-4.39-118.12-5.74-109.13-8.13-132.69-12.19-80.54-10.29-84.37-13.11-5.68-5.14-2.94-13.1 19.68-86.47 39.18-135.17 50.24-134.44 66.88-168.17c15.36-31.12 33.18-72.87 48.75-104l53.18-103 66.23-117.58 70.49-115.49 117.91-176.89s66.42-92.74 77.64-107.85c8.3-11.19 17.75-24.31 22.09-30.38a26 26 0 0 1 -1.26-3.89 9.67 9.67 0 0 0 -1.75.33l-2.25-3.54-10.58 14c-4.33 5.65-16.56 22.21-29.91 40.38z" fill="#c31f45" opacity=".4"/><path d="m746.84 1740.56s17.64-.35 26.47-15.17 0-36.7 0-36.7 24.7 9.53 40.22-30 57.52-115 92.45-149.61-39.17-38.46-39.17-38.46l14.19-10.93h94.19s-63.19 52.58-109.44 134.79-62.21 136.9-73 146.08-45.91 0-45.91 0z" fill="#faaf73"/><path d="m824.48 1513.85s-15.81-28.47-33.28-36.75-42.2-4-42.2-4l1.79-18.42 62.24 4.92 16.35 47.45z" fill="#faaf73"/><path d="m903.82 1545.39s53.71 2.75 73.85-6.4 44.56 19.22 61 82.09 9.47 88.5-13.12 97.35c0 0 40.49-1.82 37.8-52.79s-28.64-114.14-44.51-132.15-29.57-17.2-42.55-8.9-72.47 20.8-72.47 20.8z" fill="#faaf73"/><path d="m1489.34 1262.57s13.28 52.07 5.11 81.18-11 36.13-11 36.13 24.2-16.21 27.22-55-21.33-62.31-21.33-62.31z" fill="#faaf73"/><path d="m1418.09 1228.4-33.22-16.29-3.51 3.83 2.55 20.44 2.56 3.83z" fill="#faaf73"/><path d="m1616.63 603.65s96 129.16 61.76 329.41c-28.09 164.15-172.68 243.75-204.3 259.35-7.4-10.73-20.6-25.55-43.72-41.34-19.54-13.35-45.71-18.35-69.14-19.73v-9.51s-23.1-92.83-44.57-205-69-494-69-494l-9.9-78.26s-4.85-17.51-53-39c0 0 31.31 15.09 38.63 85.22s42.61 313.54 66.21 462.48 48.38 244.28 49.77 259.7-33.4 20.74-33.48 20.76l-1.57.24c126.65 6.47 160.29 88.31 160.29 88.31s37.85-4.09 68.59 43.45 22.09 86.29 22.09 86.29 25-28.69 5.14-83.67-77.5-59.16-77.5-59.16a29.21 29.21 0 0 0 -1.16-3.16c20.66-11.17 58.63-32.24 72-43.36 18.76-15.59 100.34-74.51 138.55-206.7s-8.12-276.14-75.69-352.32z" fill="#faaf73"/><path d="m1321.06 1217.61s37-1.53 51.32 55.17 28.62 109.22 30.21 121.89-16 35.65-16 35.65 38.56-11.81 31.55-37.24-42.58-182.08-42.58-182.08-27.38-4-54.5 6.61z" fill="#faaf73"/><path d="m1570.94 664.38c-3.58-5.13-6.82-10.43-10.11-15.75a97.5 97.5 0 0 0 -5.35-8.19c.88 1.4-6.25-5.73-2.5-2.89a35.35 35.35 0 0 1 -9.54-10.75c-37.73 77.43-62.11 117.78-76.79 138.64a48.9 48.9 0 0 0 -33.69-17.3c-33.93-2.44-59.16 28.72-81.34 62.76-11.2 17.19-23.6 38.76-37 64.36.49 10.73 2.84 20.88 5.15 31.6 2.79 13 4.41 26 6 39.14 2.2 18 6 39.39 8.84 59.32 5.53-12.22 11.41-25 17.5-37.8 33.33-70.24 55.57-107.22 69.24-126.54a47.26 47.26 0 0 0 33.84 18.24c34.23 2.53 60.62-29.14 92.17-81.07 13.13-21.61 27.86-48.41 44-80.06-6.75-11.27-12.87-22.91-20.42-33.71z" fill="#aee1f3"/><g fill="#c31f45"><path d="m1013.42 1428.48c-8.53 0-17.09 0-25.57 0l-24.07-.15c-199.44-1.65-360-13.44-464.4-34.09-5-1.27-7.51-3.78-5.83-13 3.11-17.09 81.65-426.08 564.35-1077.63.31-.41 7.62-10.2 16.11-15a8.24 8.24 0 0 1 8.87.48c6.61 4.8 11.5 17.8 13.45 35.7 1.06 9.69 2.24 25.92 3.86 48.38 10.68 147.43 39 539.06 176.47 1041.13a7.32 7.32 0 0 1 -6.76 9.25c-36.83 1.45-135.56 4.93-256.48 4.93zm64.65-1135.4a2.57 2.57 0 0 0 -1.29.34c-7.45 4.23-14.31 13.4-14.38 13.49-481.93 650.51-560.24 1058.25-563.34 1075.29-1.07 5.86-.41 6 1.55 6.53 103.89 20.55 264.12 32.31 463.21 34l24.06.15c8.46 0 17 .05 25.54.05 120.82 0 219.46-3.49 256.26-5a1.72 1.72 0 0 0 1.57-2.18c-137.55-502.6-166-894.62-176.64-1042.2-1.63-22.41-2.8-38.59-3.84-48.18-1.74-15.85-6-28-11.15-31.75a2.62 2.62 0 0 0 -1.55-.54z"/><path d="m1032.92 1416.7c-8.53 0-17.09 0-25.57-.06l-24.06-.14c-199.39-1.65-359.92-13.43-464.23-34.08-4.63-1.17-6.65-3.32-5.09-11.91 3.1-17.08 81.61-425.86 564.18-1077.23 0 0 .82-1.11 2.21-2.74l2.85 2.41c-1.28 1.51-2 2.53-2.07 2.55-482.05 650.68-560.4 1058.63-563.5 1075.68-1.22 6.72-.14 7 2.24 7.6 104 20.58 264.28 32.34 463.43 34l24.06.15h25.55c106 0 195.72-2.72 239.75-4.34l.13 3.73c-44.05 1.68-133.8 4.38-239.88 4.38z"/><path d="m1594.38 566.62c-76.27-76.27-177.69-118.28-285.56-118.28a409.11 409.11 0 0 0 -52.06 3.33c-5.41-46.26-8.1-74.73-8.41-81.17-1.4-28.74-9.79-46.67-24.92-53.29-6.7-2.93-35.36-19.1-63.07-34.74-17.7-10-36-20.31-51.23-28.71a50.67 50.67 0 0 0 -40-4.53l-.69.13v.06c-18.66 5.73-33.72 20.54-41.3 31.46-187.63 253.26-314.94 470.86-400.77 643.78-10 3-47.24 14.19-94.32 29 11.91-29.69 3.41-53 3-54.07a6.53 6.53 0 0 0 -5.63-4.19c-29.33-2.19-52.57 8.75-64.45 16-6.28-23.29-20.61-32-21.53-32.54a6.56 6.56 0 0 0 -5.58-.48c-30.32 11.35-49.42 37.76-55.23 76.38a186.71 186.71 0 0 0 -.53 48.64c-25.35 9-48.75 17.75-67.8 25.64l-.22.09c-1.07.45-2.14.89-3.23 1.29-3.72 1.35-13 5.88-18.75 18.64-8.24 18.25-5.55 45 8 79.45 12.66 32.27 26.82 51.63 43.29 59.2a37.06 37.06 0 0 0 15.61 3.49c7.54 0 13.7-2.3 17.74-3.8q1.14-.44 2.07-.75c4.25-1.42 31.9-11.3 63.62-22.68 4.68 14 19.08 43.9 58.55 54.12-33.52 95.89-43.91 150.2-45 156.26-7 38.77 20.51 54.48 36 57.36 71 14.07 158.85 22.8 249.93 28 .77 17.58 6.31 67.31 43.15 108.12a295.77 295.77 0 0 0 -16.23 36.29 189 189 0 0 1 -21.33-35.53c-18.77-41.82-43.57-59.45-75.83-53.92-10.61 1.81-30 7.81-41 27.59-.21.38-.39.79-.6 1.18-.11.18-.18.32-.21.36-10.39 20.22-8.64 47.69 5.28 81.71 14.29 34.93 36.74 68.66 61.59 92.55 23.61 22.74 47.27 34.94 67.44 34.94a47.24 47.24 0 0 0 6.56-.45c33.82-4.74 43.24-36.64 44.19-40.22a552.57 552.57 0 0 1 43.86-98.68 172.24 172.24 0 0 0 47.49 6.57 191 191 0 0 0 59.23-9.45c1.34 16.68.45 37.81-2.8 61.29-2.46 17.83 4.22 33.21 18.82 43.3 10.37 7.17 23.61 10.83 36.76 10.83a63.67 63.67 0 0 0 30.26-7.3c15.63-8.52 23.92-23.15 23.35-41.2-1.87-59.28-22.22-110.12-40.65-137.92-18.78-28.33-32.94-34.39-56.16-24-2.44 1.09-5.09 2.41-8.16 3.93-13.57 6.73-33.15 16.42-56.12 17.06 30.73-38.44 57.69-62.2 67.24-70.15 12.09.07 24 .11 35.75.11 151.49 0 268.67-5.46 271.06-5.59 11.35-.62 22.2-2.07 29.31-3.16a150.42 150.42 0 0 0 22.6-5.37c23.49-7.55 64.58-21.13 75.89-27.35 15-8.27 14.36-24.92 11.83-32.84-11.29-47.2-22.38-95.78-33.1-144.86 10.2-2.12 20.37-4.65 30.37-7.55a41.89 41.89 0 0 1 4.83 8.72c-3.86 9.41-15.74 43.49-4.42 83.71 13.48 48 59.8 56.76 61.77 57.11a6.5 6.5 0 0 0 5.22-1.32c.57-.45 14-11.36 22.77-31.91a91.46 91.46 0 0 0 4.85-15c8.7 7.9 22.76 17.4 40.1 17.4 1.3 0 2.62-.06 4-.17a6.53 6.53 0 0 0 5.54-4.12c.8-2.05 19.42-50.84-8.44-102.68-15.29-28.44-36.38-41-52.93-46.48a403.72 403.72 0 0 0 207.68-353.06c-.05-107.88-42.06-209.3-118.34-285.58zm-228.15 561.46c-50-246.61-82-461.31-99.86-598.82a335.48 335.48 0 0 1 34-1.77c183 0 331.91 148.9 331.91 331.91 0 125.6-72.35 241.68-184.86 297.52-17.09-13.34-43.42-26.74-81.19-28.84zm89 35.47c-.52-.47-1.08-1-1.62-1.43a339.7 339.7 0 0 0 186.1-302.72c0-187.13-152.24-339.38-339.37-339.38a342.48 342.48 0 0 0 -35 1.83q-.72-5.54-1.4-10.88a346.86 346.86 0 0 1 44.8-2.9c189.75 0 344.12 154.37 344.12 344.12.08 132.87-77.36 254.59-197.59 311.36zm-915.14-48.55c-8.37 3-35.94 12.94-66.28 23.83 7.19-14.73 4.9-38.42-6.87-70.51-15.83-43.14-31.57-59.66-43-65.58 77.33-26.3 161.68-52.11 194.56-62-31.74 64.73-57.5 123-78.41 174.26zm-158.25 56.76c5.47-15.77 2.65-39-8.46-69.27-12.7-34.62-26.87-56.81-42.21-66.16 24.1-9.57 53.48-20.15 84.37-30.74a21 21 0 0 1 2.69.76c10.49 3.71 26.54 17.81 43.45 63.9 14.55 39.64 11.46 58.68 6.32 67.67a20.81 20.81 0 0 1 -3 4.08c-33.4 12-68.12 24.42-83.16 29.74zm54.35-278.43.48 1.67c.88 3.17 1.65 6.39 2.32 9.64a100.17 100.17 0 0 1 2.19 20 103.62 103.62 0 0 0 4.34-20.19c.18-1.47.32-3 .45-4.43 6.37 9.91 18.86 62.32 18.86 62.32 3-14.48 3.56-26.66 2.6-36.87a101.94 101.94 0 0 1 42.45-16.34c-1.23 1.2-2.44 2.41-3.6 3.67a96.09 96.09 0 0 0 -8 9.8 94.22 94.22 0 0 0 -6.61 10.58 94.08 94.08 0 0 1 18.83-15.36 96.53 96.53 0 0 1 10.46-5.69c1.15-.54 2.32-1 3.48-1.51 1.65 9.22 2.49 27.54-9.47 48.57-38.16 12.14-80.94 26.13-120.15 39.82-2.23-21.77-4.08-83.49 41.37-105.7zm-124 230.43c-15.19-38.7-12.86-59-8.23-69.3a23.77 23.77 0 0 1 7.44-9.59l.05.09s3.27-1.46 8.43.36c8 2.82 23.92 14.58 41.2 61.67 14.65 39.94 10.51 57.39 6.74 64.23-2.7 4.91-6.2 6.44-7.33 6.82-12.42.68-29.86-7.38-48.26-54.3zm142.38 35.85c30.05-10.78 61.47-22.08 78.93-28.36q-16.12 40.41-28.21 74.5c-35.29-8.66-47.16-34.85-50.68-46.16zm300.43 300.86q26.29 1.41 52.76 2.45a106.23 106.23 0 0 0 17.47 43 452.62 452.62 0 0 0 -33.52 49.77c-30.13-35.8-35.71-78.81-36.71-95.22zm78.76 34.63a94.34 94.34 0 0 1 -12.61-31.67q19.67.72 39.26 1.26c-6.78 7.18-16.2 17.58-26.62 30.41zm-64.88 244.49c-36.79 5.17-93.65-50.45-121.69-119-12.2-29.81-14.17-54.18-5.82-70.66 1.16-1.75 6.64-9.27 16-10.47 10-1.29 22.05 4.89 35 17.84 22.48 22.48 27.12 43 31.61 62.91 3.37 14.94 6.86 30.38 18 44.87 5.8 7.54 12 14.56 17.93 21.35 20.23 23 31.21 36.65 21.58 48.77.01.01-7.62 3.7-12.58 4.39zm203.82-208.18c2.95-1.46 5.49-2.72 7.7-3.71 14.55-6.53 22.73-6.68 39.92 19.27 17.43 26.31 36.7 74.57 38.48 131.11.52 16.5-8.71 25.05-16.54 29.31-15.71 8.56-38.65 7.36-53.35-2.8-7.31-5-14.64-14.39-13.29-30.76 5.76-70-16.31-91-16.31-91a59.69 59.69 0 0 1 4.46 14.64c-11 3.89-52.43 16.5-98.24 4.49a585.29 585.29 0 0 1 35.3-52.42c30.47 2.37 56.3-10.39 71.9-18.13zm-170.28 177-.13.46a46.44 46.44 0 0 1 -4.74 10.94c-3-13.67-15.18-27.58-27.85-42-5.82-6.63-11.84-13.48-17.39-20.69-9.38-12.2-12.27-25-15.61-39.78-4.67-20.68-10-44.12-35.11-69.27-10.37-10.37-20.44-17.06-30.12-20 .82-.17 1.61-.33 2.33-.46 16.3-2.79 37 .64 61.71 46.4 29.75 55.22 60.37 60.38 60.37 60.38a204.14 204.14 0 0 1 -17.45-18.16c23.72-72.74 87.63-138.89 99.81-151 27.14.65 54 1.07 80.12 1.31-33.51 30.53-113.55 113.54-155.91 241.87zm171.58-254.86-.23-.3-.39.3c-159.95-1-348.27-8.77-479-34.67-1.32-.25-32.11-6.39-25.6-42.19 3.15-17.33 82.74-431.91 568.89-1088.12l.12-.16c.82-1.17 14.17-20 33.45-26.3a35.78 35.78 0 0 1 26.51 6.56c12.85 9.34 20.81 27.28 23.65 53.32 1.11 10.13 2.3 26.56 3.95 49.3 10.72 148 39.2 541.2 178.07 1045.17l.15.47c0 .12 4.08 11.83-1.35 20.6-3.57 5.77-10.76 9.37-21.34 10.71-21.81.98-150.76 6.32-306.88 5.31zm410.7-236.79c11.86 2.91 20.53 7.59 26.81 12.57-7.58 2.06-15.25 3.87-22.93 5.46q-1.93-9-3.86-18.03zm161.69 41.16c20.58 38.29 12.58 75.61 9.09 87.68-18.06-.77-32.16-15.66-36.46-20.73a109.14 109.14 0 0 0 -5.33-38.73 96.41 96.41 0 0 1 17.25 19.12s.11-26.71-28.56-41.91l-10-4.08a2.42 2.42 0 0 0 -3.09 3.3l4.72 9.69c29 59.44-1.76 95-10.79 103.72-9.48-2.62-39-13.36-48.54-47.08-11.67-41.51 4.59-76.73 4.75-77.07l1-2.17-.62-2.31c-.17-.68-3.24-18.64-22.31-29.7-48.42-28.07-96.52 0-96.52 0 20.11-3.9 36.47-4.56 49.79-3.2 13.12 61.46 26.91 122.44 41 181.31l.15.54c.17.5 4 12.27-5.63 17.55-7.45 4.1-35 14-73.59 26.36a135.77 135.77 0 0 1 -19.76 4.74c.14-.21.28-.41.41-.62 8.18-13.35 3.38-29.08 2.56-31.5-138.41-502.68-166.82-894.83-177.51-1042.49-1.66-22.87-2.86-39.4-4-49.77-2-18.6-6.58-33.75-13.57-45.35 10.66 6 22 12.37 33.1 18.63 30.55 17.25 57 32.14 64.26 35.33 10.06 4.41 16 18.91 17.1 42 1.16 23.79 34.47 346 117.55 756.68a234.53 234.53 0 0 0 -48.53 6.15s77.51-8 134.79 33c25.59 18.34 34.06 42.64 34.15 42.86l1.7 4.42 4.73-.22c1.72-.07 42.38-1.45 66.73 43.85zm-61-57 .15.29c-.67-.06-1.3-.1-1.88-.13a122.58 122.58 0 0 0 -18.66-27.68c122.43-59.74 201-184.81 201-321.21 0-197-160.23-357.19-357.18-357.19a359.61 359.61 0 0 0 -46.43 3q-2.23-17.81-4.09-33.37a397.67 397.67 0 0 1 50.52-3.24c215.48 0 390.78 175.31 390.78 390.79 0 148.07-82.09 281.7-214.23 348.73z"/><path d="m887.08 1133.25q-12 0-24.53-1c-123.61-10.25-181.45-94.38-191.79-111.14a13.64 13.64 0 0 1 .14-14.45c11.31-17.61 74.78-105 214.5-95.65 58.34 3.89 109.23 23.83 151.24 59.26 33.49 28.24 51.38 58.38 57.51 70a13.47 13.47 0 0 1 -3.13 16.55c-21.75 18.79-97.35 76.42-203.94 76.43zm-22.22-209.87c-118.68 0-172.89 74.65-183 90.34a.5.5 0 0 0 0 .54c9.76 15.82 64.39 95.24 181.75 105 7.74.64 15.36.94 22.82.94 105.53 0 181.13-60.34 196-73.2a.46.46 0 0 0 .11-.57c-9.95-18.88-66.24-113.53-198.06-122.34q-10.06-.72-19.62-.71z"/><path d="m778.16 1141.59a175.79 175.79 0 0 0 24.23 10.54 227.51 227.51 0 0 0 25.18 7.31 224.92 224.92 0 0 0 25.75 4.31 204 204 0 0 0 26 1.38 215.91 215.91 0 0 0 26-1.51l3.25-.33 3.24-.46 6.47-.94 6.43-1.2 3.23-.57 3.2-.7a366.58 366.58 0 0 0 50.56-15.15 207.5 207.5 0 0 1 -49.16 20.8 199.11 199.11 0 0 1 -53.23 7.52 187.74 187.74 0 0 1 -53.28-7.53 173.35 173.35 0 0 1 -25.11-9.57c-7.92-3.94-15.82-8.31-22.76-13.9z"/><path d="m1008.54 1191.76c4.51 3.8 8.2 7.29 11.94 10.63s7.28 6.47 10.92 9.47a34.32 34.32 0 0 0 2.74 2.24l2.76 2.24c1.93 1.37 3.77 3 5.79 4.32 1 .69 2 1.57 3 2.24s2.09 1.44 3.15 2.24c2.1 1.63 4.39 2.95 6.68 5a31.63 31.63 0 0 1 -17.18-.19 39.25 39.25 0 0 1 -8.1-3.17c-1.29-.67-2.49-1.49-3.73-2.27-.6-.41-1.22-.79-1.8-1.24l-1.68-1.38a42.32 42.32 0 0 1 -10.78-13.41c-.63-1.29-1.2-2.62-1.73-3.94s-.92-2.72-1.26-4.12a25.19 25.19 0 0 1 -.72-8.66z"/><path d="m1034.56 1220.61c-.4.82-.69 1.32-1 1.93s-.67 1.14-1 1.7c-.68 1.11-1.39 2.18-2.12 3.23-1.45 2.1-3 4.12-4.57 6.07a101.57 101.57 0 0 1 -10.4 10.84 98 98 0 0 1 -24.71 16.22 95.1 95.1 0 0 1 -13.71 5.11c-2.31.75-4.7 1.22-7 1.82-2.39.42-4.73 1-7.13 1.27a124.9 124.9 0 0 1 -28.57.77 123.48 123.48 0 0 0 27.91-4c2.28-.53 4.47-1.35 6.7-2 2.17-.84 4.38-1.54 6.49-2.51a91.49 91.49 0 0 0 33.12-23.64 88.58 88.58 0 0 0 8.11-10.68c1.2-1.87 2.32-3.78 3.35-5.71.51-1 1-1.93 1.46-2.9l.64-1.44c.2-.45.43-1 .51-1.27z"/><path d="m1088.37 1043.34c-12-22.73-69.4-116.86-203.41-125.81a278 278 0 0 0 -64.22 2.84 169.78 169.78 0 0 0 -14.59 15.16 29.57 29.57 0 1 1 -28.43 47.83 167.74 167.74 0 0 0 .06 120.74 258 258 0 0 0 85.31 21.62c118.77 9.83 204.47-57.26 223.66-73.82a7 7 0 0 0 1.62-8.56zm-185.77-89.46a7.51 7.51 0 1 1 -7.5 7.5 7.5 7.5 0 0 1 7.5-7.5zm-17.6 24.53a5.77 5.77 0 1 1 -5.77 5.77 5.77 5.77 0 0 1 5.77-5.77zm22 123.59a201.4 201.4 0 0 1 -42 4.68c-39.74 0-59.69-14-60.76-14.74a8.4 8.4 0 0 1 9.79-13.66c.53.37 29.85 20 89.45 7.28a8.41 8.41 0 0 1 3.52 16.44zm17.93-126.8a8.95 8.95 0 1 1 8.94 8.95 8.94 8.94 0 0 1 -8.99-8.92zm49.29 106.44c-12 7.24-29.95 11.49-30.71 11.66a7.93 7.93 0 0 1 -1.92.23 8.4 8.4 0 0 1 -1.9-16.58c.16 0 16.17-3.83 25.83-9.68a8.4 8.4 0 1 1 8.7 14.37zm23.33-13.73a7.09 7.09 0 1 1 7.09-7.08 7.09 7.09 0 0 1 -7.14 7.11z"/></g></svg>
